<svg id="visual" viewBox="0 0 960 540" width="960" height="540" xmlns="http://www.w3.org/2000/svg" xmlns:xlink="http://www.w3.org/1999/xlink" version="1.1"><rect x="0" y="0" width="960" height="540" fill="#002233"></rect><path d="M0 304L13.3 312.8C26.7 321.7 53.3 339.3 80 349.2C106.7 359 133.3 361 160 374.7C186.7 388.3 213.3 413.7 240 407.7C266.7 401.7 293.3 364.3 320 350.3C346.7 336.3 373.3 345.7 400 345.2C426.7 344.7 453.3 334.3 480 336.7C506.7 339 533.3 354 560 363.2C586.7 372.3 613.3 375.7 640 364.5C666.7 353.3 693.3 327.7 720 309.3C746.7 291 773.3 280 800 289.8C826.7 299.7 853.3 330.3 880 330C906.7 329.7 933.3 298.3 946.7 282.7L960 267L960 541L946.7 541C933.3 541 906.7 541 880 541C853.3 541 826.7 541 800 541C773.3 541 746.7 541 720 541C693.3 541 666.7 541 640 541C613.3 541 586.7 541 560 541C533.3 541 506.7 541 480 541C453.3 541 426.7 541 400 541C373.3 541 346.7 541 320 541C293.3 541 266.7 541 240 541C213.3 541 186.7 541 160 541C133.3 541 106.7 541 80 541C53.3 541 26.7 541 13.3 541L0 541Z" fill="#0066FF" stroke-linecap="round" stroke-linejoin="miter"></path></svg>